<svg width="212" height="43" viewBox="0 0 212 43" fill="none" xmlns="http://www.w3.org/2000/svg">
<g filter="url(#filter0_d_52_616)">
<path d="M35.12 34H26.912L13.184 13.216V34H4.976V0.303999H13.184L26.912 21.184V0.303999H35.12V34ZM65.8177 20.176C65.8177 20.944 65.7698 21.744 65.6738 22.576H47.0978C47.2258 24.24 47.7538 25.52 48.6818 26.416C49.6418 27.28 50.8098 27.712 52.1858 27.712C54.2338 27.712 55.6578 26.848 56.4578 25.12H65.1938C64.7458 26.88 63.9298 28.464 62.7458 29.872C61.5938 31.28 60.1378 32.384 58.3778 33.184C56.6178 33.984 54.6498 34.384 52.4738 34.384C49.8498 34.384 47.5138 33.824 45.4658 32.704C43.4178 31.584 41.8178 29.984 40.6658 27.904C39.5138 25.824 38.9378 23.392 38.9378 20.608C38.9378 17.824 39.4978 15.392 40.6178 13.312C41.7698 11.232 43.3698 9.632 45.4178 8.512C47.4658 7.392 49.8178 6.832 52.4738 6.832C55.0658 6.832 57.3698 7.376 59.3858 8.464C61.4018 9.552 62.9698 11.104 64.0898 13.12C65.2418 15.136 65.8177 17.488 65.8177 20.176ZM57.4178 18.016C57.4178 16.608 56.9378 15.488 55.9778 14.656C55.0178 13.824 53.8178 13.408 52.3778 13.408C51.0018 13.408 49.8338 13.808 48.8738 14.608C47.9458 15.408 47.3698 16.544 47.1458 18.016H57.4178ZM85.4879 34L80.3519 26.56L76.0319 34H67.1519L75.9839 20.32L66.9119 7.216H76.1279L81.2639 14.608L85.5839 7.216H94.4639L85.4879 20.704L94.7039 34H85.4879ZM105.431 0.303999V20.464C105.431 22.48 105.927 24.032 106.919 25.12C107.911 26.208 109.367 26.752 111.287 26.752C113.207 26.752 114.679 26.208 115.703 25.12C116.727 24.032 117.239 22.48 117.239 20.464V0.303999H125.447V20.416C125.447 23.424 124.807 25.968 123.527 28.048C122.247 30.128 120.519 31.696 118.343 32.752C116.199 33.808 113.799 34.336 111.143 34.336C108.487 34.336 106.103 33.824 103.991 32.8C101.911 31.744 100.263 30.176 99.0466 28.096C97.8306 25.984 97.2226 23.424 97.2226 20.416V0.303999H105.431ZM129.078 20.608C129.078 17.824 129.638 15.392 130.758 13.312C131.91 11.232 133.494 9.632 135.51 8.512C137.558 7.392 139.894 6.832 142.518 6.832C145.878 6.832 148.678 7.712 150.918 9.472C153.19 11.232 154.678 13.712 155.382 16.912H146.646C145.91 14.864 144.486 13.84 142.374 13.84C140.87 13.84 139.67 14.432 138.774 15.616C137.878 16.768 137.43 18.432 137.43 20.608C137.43 22.784 137.878 24.464 138.774 25.648C139.67 26.8 140.87 27.376 142.374 27.376C144.486 27.376 145.91 26.352 146.646 24.304H155.382C154.678 27.44 153.19 29.904 150.918 31.696C148.646 33.488 145.846 34.384 142.518 34.384C139.894 34.384 137.558 33.824 135.51 32.704C133.494 31.584 131.91 29.984 130.758 27.904C129.638 25.824 129.078 23.392 129.078 20.608ZM170.169 34.384C167.833 34.384 165.753 33.984 163.929 33.184C162.105 32.384 160.665 31.296 159.609 29.92C158.553 28.512 157.961 26.944 157.833 25.216H165.945C166.041 26.144 166.473 26.896 167.241 27.472C168.009 28.048 168.953 28.336 170.073 28.336C171.097 28.336 171.881 28.144 172.425 27.76C173.001 27.344 173.289 26.816 173.289 26.176C173.289 25.408 172.889 24.848 172.089 24.496C171.289 24.112 169.993 23.696 168.201 23.248C166.281 22.8 164.681 22.336 163.401 21.856C162.121 21.344 161.017 20.56 160.089 19.504C159.161 18.416 158.697 16.96 158.697 15.136C158.697 13.6 159.113 12.208 159.945 10.96C160.809 9.68 162.057 8.672 163.689 7.936C165.353 7.2 167.321 6.832 169.593 6.832C172.953 6.832 175.593 7.664 177.513 9.328C179.465 10.992 180.585 13.2 180.873 15.952H173.289C173.161 15.024 172.745 14.288 172.041 13.744C171.369 13.2 170.473 12.928 169.353 12.928C168.393 12.928 167.657 13.12 167.145 13.504C166.633 13.856 166.377 14.352 166.377 14.992C166.377 15.76 166.777 16.336 167.577 16.72C168.409 17.104 169.689 17.488 171.417 17.872C173.401 18.384 175.017 18.896 176.265 19.408C177.513 19.888 178.601 20.688 179.529 21.808C180.489 22.896 180.985 24.368 181.017 26.224C181.017 27.792 180.569 29.2 179.673 30.448C178.809 31.664 177.545 32.624 175.881 33.328C174.249 34.032 172.345 34.384 170.169 34.384ZM196.435 34.384C194.099 34.384 192.019 33.984 190.195 33.184C188.371 32.384 186.931 31.296 185.875 29.92C184.819 28.512 184.227 26.944 184.099 25.216H192.211C192.307 26.144 192.739 26.896 193.507 27.472C194.275 28.048 195.219 28.336 196.339 28.336C197.363 28.336 198.147 28.144 198.691 27.76C199.267 27.344 199.555 26.816 199.555 26.176C199.555 25.408 199.155 24.848 198.355 24.496C197.555 24.112 196.259 23.696 194.467 23.248C192.547 22.8 190.947 22.336 189.667 21.856C188.387 21.344 187.283 20.56 186.355 19.504C185.427 18.416 184.963 16.96 184.963 15.136C184.963 13.6 185.379 12.208 186.211 10.96C187.075 9.68 188.323 8.672 189.955 7.936C191.619 7.2 193.587 6.832 195.859 6.832C199.219 6.832 201.859 7.664 203.779 9.328C205.731 10.992 206.851 13.2 207.139 15.952H199.555C199.427 15.024 199.011 14.288 198.307 13.744C197.635 13.2 196.739 12.928 195.619 12.928C194.659 12.928 193.923 13.12 193.411 13.504C192.899 13.856 192.643 14.352 192.643 14.992C192.643 15.76 193.043 16.336 193.843 16.72C194.675 17.104 195.955 17.488 197.683 17.872C199.667 18.384 201.283 18.896 202.531 19.408C203.779 19.888 204.867 20.688 205.795 21.808C206.755 22.896 207.251 24.368 207.283 26.224C207.283 27.792 206.835 29.2 205.939 30.448C205.075 31.664 203.811 32.624 202.147 33.328C200.515 34.032 198.611 34.384 196.435 34.384Z" fill="url(#paint0_linear_52_616)" shape-rendering="crispEdges"/>
</g>
<defs>
<filter id="filter0_d_52_616" x="0.976013" y="0.303998" width="210.307" height="42.08" filterUnits="userSpaceOnUse" color-interpolation-filters="sRGB">
<feFlood flood-opacity="0" result="BackgroundImageFix"/>
<feColorMatrix in="SourceAlpha" type="matrix" values="0 0 0 0 0 0 0 0 0 0 0 0 0 0 0 0 0 0 127 0" result="hardAlpha"/>
<feOffset dy="4"/>
<feGaussianBlur stdDeviation="2"/>
<feComposite in2="hardAlpha" operator="out"/>
<feColorMatrix type="matrix" values="0 0 0 0 0 0 0 0 0 0 0 0 0 0 0 0 0 0 0.25 0"/>
<feBlend mode="normal" in2="BackgroundImageFix" result="effect1_dropShadow_52_616"/>
<feBlend mode="normal" in="SourceGraphic" in2="effect1_dropShadow_52_616" result="shape"/>
</filter>
<linearGradient id="paint0_linear_52_616" x1="2" y1="17" x2="210" y2="17" gradientUnits="userSpaceOnUse">
<stop stop-color="#773EB1" stop-opacity="0.933333"/>
<stop offset="0.511534" stop-color="#70CAEE"/>
<stop offset="1" stop-color="#773EB1" stop-opacity="0.93"/>
</linearGradient>
</defs>
</svg>
